<svg width="18" height="22" viewBox="0 0 18 22" fill="none" xmlns="http://www.w3.org/2000/svg">
<path d="M16.25 11C16.25 11.4142 16.5858 11.75 17 11.75C17.4142 11.75 17.75 11.4142 17.75 11H16.25ZM4 1.75H14V0.25H4V1.75ZM1.75 18V4H0.25V18H1.75ZM13 20.25H4V21.75H13V20.25ZM16.25 4V11H17.75V4H16.25ZM0.25 18C0.25 20.0711 1.92893 21.75 4 21.75V20.25C2.75736 20.25 1.75 19.2426 1.75 18H0.25ZM14 1.75C15.2426 1.75 16.25 2.75736 16.25 4H17.75C17.75 1.92893 16.0711 0.25 14 0.25V1.75ZM4 0.25C1.92893 0.25 0.25 1.92893 0.25 4H1.75C1.75 2.75736 2.75736 1.75 4 1.75V0.25Z" fill="#7E8CA0"/>
<path d="M1 18C1 16.3431 2.34315 15 4 15H17V18C17 19.6569 15.6569 21 14 21H4C2.34315 21 1 19.6569 1 18V18Z" stroke="#7E8CA0" stroke-width="1.5"/>
<line x1="4.75" y1="6.25" x2="13.25" y2="6.25" stroke="#7E8CA0" stroke-width="1.5" stroke-linecap="round"/>
<line x1="4.75" y1="10.25" x2="9.25" y2="10.25" stroke="#7E8CA0" stroke-width="1.5" stroke-linecap="round"/>
</svg>
