<svg width="29" height="28" viewBox="0 0 29 28" fill="none" xmlns="http://www.w3.org/2000/svg">
<path d="M24.0021 19.1803C24.93 17.2988 25.279 15.1845 25.0052 13.1046C24.7314 11.0247 23.847 9.07278 22.4638 7.49556C21.0806 5.91834 19.2608 4.7867 17.2345 4.24375C15.2081 3.7008 13.0663 3.77091 11.0798 4.44523C9.09335 5.11955 7.35144 6.36779 6.07437 8.03209C4.79731 9.6964 4.04245 11.702 3.90524 13.7953C3.76804 15.8887 4.25466 17.9757 5.30356 19.7924" stroke="#7E8CA0" stroke-width="1.5" stroke-linecap="round"/>
<path d="M14.6743 15.3477C16.3312 15.3477 17.6743 14.0045 17.6743 12.3476C17.6743 10.6908 16.3312 9.34766 14.6743 9.34766C13.0175 9.34766 11.6743 10.6908 11.6743 12.3476C11.6743 14.0045 13.0175 15.3477 14.6743 15.3477Z" stroke="#7E8CA0" stroke-width="1.5" stroke-linecap="round" stroke-linejoin="round"/>
<path d="M21.6743 25.3477C21.6743 21.4826 18.5418 18.3477 14.6743 18.3477C10.8068 18.3477 7.67432 21.4826 7.67432 25.3477" stroke="#7E8CA0" stroke-width="1.5" stroke-linecap="round" stroke-linejoin="round"/>
</svg>
